<?xml version="1.0" encoding="UTF-8"?>
<svg width="96px" height="96px" viewBox="0 0 96 96" version="1.1" xmlns="http://www.w3.org/2000/svg" xmlns:xlink="http://www.w3.org/1999/xlink">
    <title>96x96@1x</title>
    <defs>
        <radialGradient cx="100%" cy="3.22658567e-14%" fx="100%" fy="3.22658567e-14%" r="141.421356%" id="radialGradient-1">
            <stop stop-color="#AD00AB" offset="0%"></stop>
            <stop stop-color="#0F335C" offset="100%"></stop>
        </radialGradient>
    </defs>
    <g id="96x96" stroke="none" stroke-width="1" fill="none" fill-rule="evenodd">
        <rect id="Rectangle" fill="url(#radialGradient-1)" x="0" y="0" width="96" height="96" rx="8"></rect>
        <g id="Token" transform="translate(21.000000, 21.000000)">
            <circle id="Oval" fill="#000000" cx="25.8205128" cy="27.1794872" r="25.8205128"></circle>
            <circle id="Oval-Copy" stroke="#7C7C7C" fill="#E0E0E0" cx="28.5384615" cy="25.8205128" r="25.8205128"></circle>
            <g id="near_icon" transform="translate(16.000000, 13.000000)" fill="#000000" fill-rule="nonzero">
                <path d="M20.0659722,1.26909728 L14.8402778,9.02777763 C14.6863674,9.25884025 14.7266616,9.56805209 14.9346472,9.75195513 C15.1426328,9.93585816 15.4544517,9.93798845 15.6649306,9.75694428 L20.8090278,5.29513884 C20.8706281,5.24002915 20.9589823,5.22654747 21.0342148,5.26077826 C21.1094473,5.29500906 21.1573289,5.37047802 21.15625,5.45312495 L21.15625,19.4218746 C21.1562168,19.5094801 21.1013814,19.5877056 21.019039,19.617613 C20.9366966,19.6475203 20.8444412,19.6227194 20.7881944,19.5555551 L5.23958333,0.942708401 C4.73339071,0.344976131 3.98986909,0 3.20659722,0 L2.66319444,0 C1.19235277,0 0,1.19235283 0,2.66319447 L0,22.3368051 C0,23.8076467 1.19235277,25 2.66319444,25 L2.66319444,25 C3.58922456,25 4.44899312,24.5197452 4.93402778,23.7309022 L10.1597222,15.9722219 C10.3136326,15.7411593 10.2733384,15.4319474 10.0653528,15.2480444 C9.85736721,15.0641414 9.54554827,15.0620111 9.33506944,15.2430552 L4.19097222,19.7048607 C4.12937189,19.7599704 4.04101773,19.7734521 3.96578521,19.7392213 C3.89055269,19.7049905 3.84267107,19.6295215 3.84375,19.5468746 L3.84375,5.57465272 C3.84378317,5.48704721 3.89861859,5.40882174 3.98096102,5.37891435 C4.06330344,5.34900696 4.15555884,5.37380793 4.21180556,5.44097217 L19.7586806,24.0572911 C20.2648732,24.6550234 21.0083948,25 21.7916667,25 L22.3350694,25 C23.0416933,25.0004601 23.7195333,24.7200777 24.2193547,24.2205819 C24.7191761,23.7210862 25,23.043429 25,22.3368051 L25,2.66319447 C25,1.19235283 23.8076472,0 22.3368056,0 L22.3368056,0 C21.4107754,0 20.5510069,0.480254336 20.0659722,1.26909728 Z" id="Path"></path>
            </g>
        </g>
    </g>
</svg>